<svg width="16" height="14" viewBox="0 0 16 14" fill="none" xmlns="http://www.w3.org/2000/svg">
<path fill-rule="evenodd" clip-rule="evenodd" d="M1.08579 12.1966L2.5 13.6108L4.06951 12.0413L4.07205 12.0426L5.74123 10.3734L5.73909 10.3717L10.8662 5.24456L10.8679 5.24674L12.7012 3.41343L12.6989 3.41189L14.5208 1.58999L13.1066 0.175781L10.808 2.47439C9.9282 2.16727 8.98352 2.00043 8 2.00043C4.36364 2.00043 1.25818 4.2811 0 7.50043C0.515821 8.82027 1.34213 9.98234 2.38821 10.8942L1.08579 12.1966ZM4.56794 8.71445L9.23241 4.04997C8.84751 3.91004 8.43254 3.83376 8 3.83376C5.99273 3.83376 4.36364 5.47643 4.36364 7.50043C4.36364 7.92585 4.43561 8.33443 4.56794 8.71445Z" fill="#002033" fill-opacity="0.35"/>
<path d="M8 13.0004C6.96429 13.0004 5.97165 12.8154 5.05249 12.4764L6.63088 10.898C7.05353 11.0715 7.51576 11.1671 8 11.1671C10.0073 11.1671 11.6364 9.52443 11.6364 7.50043C11.6364 7.02292 11.5457 6.56663 11.3808 6.14813L13.5098 4.01913C14.6042 4.94363 15.4675 6.13797 16 7.50043C14.7418 10.7198 11.6364 13.0004 8 13.0004Z" fill="#002033" fill-opacity="0.35"/>
</svg>
