<svg width="107" height="32" viewBox="0 0 107 32" fill="none" xmlns="http://www.w3.org/2000/svg">
<path d="M3.46083 24.9564C5.36128 27.6866 8.09073 29.7344 11.2462 30.7975C14.4017 31.8606 17.8159 31.8827 20.9849 30.8604C24.1539 29.8382 26.9097 27.8259 28.8454 25.1205C30.7811 22.4151 31.7941 19.16 31.7349 15.8359C31.6758 12.5118 30.5475 9.29473 28.5167 6.65971C26.486 4.02469 23.6603 2.11135 20.457 1.20217C17.2536 0.292987 13.8423 0.43614 10.7266 1.6105C7.61097 2.78486 4.95614 4.92819 3.15406 7.72406L6.40722 9.81376C7.76031 7.71449 9.75368 6.10518 12.0931 5.22341C14.4324 4.34164 16.9938 4.23415 19.3991 4.91681C21.8043 5.59947 23.9259 7.0361 25.4507 9.0146C26.9755 10.9931 27.8227 13.4086 27.8671 15.9045C27.9116 18.4004 27.1509 20.8445 25.6975 22.8758C24.2441 24.9072 22.1749 26.4181 19.7955 27.1857C17.4161 27.9532 14.8525 27.9367 12.4832 27.1384C10.1139 26.3402 8.06451 24.8026 6.63755 22.7527L3.46083 24.9564Z" fill="#1019FF" fill-opacity="0.49"/>
<path d="M2.66669 8.53334C1.32336 10.9261 0.640148 13.632 0.68681 16.3745C0.733472 19.1171 1.50834 21.7982 2.93229 24.1441L6.2407 22.1427C5.17153 20.3813 4.58972 18.3682 4.55469 16.309C4.51965 14.2497 5.03264 12.218 6.04128 10.4214L2.66669 8.53334Z" fill="#1019FF" fill-opacity="0.49"/>
<path d="M27.0217 21.9999C26.1102 21.9999 25.2966 21.7675 24.581 21.3027C23.8704 20.833 23.3117 20.1651 22.9049 19.2991C22.503 18.4282 22.3021 17.3836 22.3021 16.1653C22.3021 14.9471 22.5055 13.9049 22.9122 13.0389C23.3239 12.1729 23.8875 11.51 24.6031 11.05C25.3186 10.5901 26.1298 10.3602 27.0364 10.3602C27.7373 10.3602 28.3009 10.4776 28.7273 10.7125C29.1586 10.9424 29.4919 11.2115 29.7271 11.5197C29.9673 11.828 30.1535 12.0995 30.2858 12.3344H30.4181V6.74938H32.6163V21.7797H30.4696V20.0257H30.2858C30.1535 20.2654 29.9624 20.5394 29.7124 20.8476C29.4674 21.1559 29.1292 21.425 28.6979 21.6549C28.2666 21.8849 27.7079 21.9999 27.0217 21.9999ZM27.5069 20.1284C28.1392 20.1284 28.6734 19.9621 29.1096 19.6294C29.5507 19.2918 29.8839 18.8245 30.1094 18.2276C30.3397 17.6307 30.4549 16.9359 30.4549 16.1433C30.4549 15.3605 30.3422 14.6755 30.1167 14.0884C29.8913 13.5013 29.5605 13.0438 29.1243 12.716C28.6881 12.3882 28.149 12.2243 27.5069 12.2243C26.8453 12.2243 26.2939 12.3955 25.8529 12.738C25.4118 13.0805 25.0785 13.5478 24.853 14.1398C24.6325 14.7318 24.5222 15.3996 24.5222 16.1433C24.5222 16.8968 24.635 17.5744 24.8604 18.1762C25.0858 18.778 25.4191 19.2551 25.8602 19.6073C26.3062 19.9547 26.8551 20.1284 27.5069 20.1284Z" fill="#141414"/>
<path d="M42.9066 17.1047V10.507H45.112V21.7797H42.9507V19.8275H42.833C42.5733 20.4293 42.1567 20.9308 41.5833 21.332C41.0148 21.7283 40.3066 21.9265 39.4587 21.9265C38.7333 21.9265 38.0913 21.7675 37.5326 21.4494C36.9788 21.1265 36.5426 20.6495 36.224 20.0183C35.9104 19.3872 35.7535 18.6068 35.7535 17.6772V10.507H37.9516V17.413C37.9516 18.1811 38.1648 18.7927 38.5912 19.2477C39.0176 19.7027 39.5714 19.9303 40.2527 19.9303C40.6643 19.9303 41.0736 19.8275 41.4804 19.622C41.892 19.4165 42.2327 19.1058 42.5022 18.69C42.7767 18.2741 42.9115 17.7457 42.9066 17.1047Z" fill="#141414"/>
<path d="M52.8219 22.0072C51.729 22.0072 50.788 21.7601 49.9989 21.266C49.2148 20.7669 48.6119 20.0795 48.1905 19.2037C47.769 18.3279 47.5582 17.3249 47.5582 16.1947C47.5582 15.0498 47.7739 14.0395 48.2052 13.1637C48.6364 12.283 49.2442 11.5956 50.0283 11.1014C50.8125 10.6073 51.7363 10.3602 52.7999 10.3602C53.6575 10.3602 54.4221 10.5192 55.0935 10.8372C55.765 11.1503 56.3065 11.5907 56.7182 12.1582C57.1348 12.7258 57.3823 13.3887 57.4607 14.1471H55.3214C55.2038 13.6187 54.9343 13.1637 54.5128 12.7821C54.0962 12.4004 53.5375 12.2096 52.8366 12.2096C52.224 12.2096 51.6873 12.3711 51.2266 12.694C50.7708 13.012 50.4155 13.467 50.1607 14.059C49.9058 14.6462 49.7784 15.3409 49.7784 16.1433C49.7784 16.9653 49.9034 17.6747 50.1533 18.2716C50.4033 18.8685 50.7561 19.3309 51.2119 19.6587C51.6726 19.9865 52.2142 20.1504 52.8366 20.1504C53.2532 20.1504 53.6306 20.0746 53.9688 19.9229C54.3118 19.7664 54.5985 19.5437 54.8289 19.2551C55.0641 18.9664 55.2283 18.619 55.3214 18.2129H57.4607C57.3823 18.9419 57.1446 19.5927 56.7476 20.1651C56.3506 20.7375 55.8189 21.1877 55.1524 21.5155C54.4907 21.8433 53.7139 22.0072 52.8219 22.0072Z" fill="#141414"/>
<path d="M63.0975 22.0292C62.382 22.0292 61.735 21.8971 61.1567 21.6329C60.5784 21.3638 60.1201 20.9748 59.782 20.466C59.4487 19.9572 59.2821 19.3334 59.2821 18.5946C59.2821 17.9585 59.4046 17.435 59.6496 17.024C59.8947 16.613 60.2255 16.2877 60.6421 16.0479C61.0587 15.8082 61.5243 15.6271 62.0389 15.5048C62.5535 15.3825 63.0779 15.2896 63.6121 15.2259C64.2885 15.1477 64.8374 15.0841 65.2589 15.0351C65.6803 14.9813 65.9867 14.8957 66.1778 14.7783C66.3689 14.6608 66.4645 14.47 66.4645 14.2058V14.1545C66.4645 13.5135 66.2832 13.0169 65.9205 12.6646C65.5627 12.3124 65.0285 12.1362 64.3179 12.1362C63.5778 12.1362 62.9946 12.3001 62.5682 12.6279C62.1467 12.9509 61.8551 13.3105 61.6934 13.7068L59.6276 13.2371C59.8726 12.5521 60.2304 11.9992 60.7009 11.5785C61.1763 11.1528 61.7228 10.8446 62.3403 10.6537C62.9578 10.458 63.6072 10.3602 64.2885 10.3602C64.7393 10.3602 65.2172 10.414 65.722 10.5216C66.2317 10.6244 66.7071 10.8152 67.1482 11.0941C67.5942 11.373 67.9593 11.7717 68.2436 12.2903C68.5278 12.8041 68.67 13.4719 68.67 14.2939V21.7797H66.5233V20.2385H66.4351C66.293 20.5223 66.0798 20.8012 65.7955 21.0751C65.5113 21.3491 65.1461 21.5766 64.7001 21.7577C64.2542 21.9387 63.7199 22.0292 63.0975 22.0292ZM63.5754 20.2679C64.1831 20.2679 64.7026 20.148 65.1339 19.9082C65.5701 19.6685 65.9009 19.3554 66.1263 18.9688C66.3567 18.5774 66.4719 18.1591 66.4719 17.7139V16.2607C66.3934 16.339 66.2415 16.4124 66.0161 16.4809C65.7955 16.5445 65.5431 16.6008 65.2589 16.6497C64.9746 16.6938 64.6977 16.7353 64.4281 16.7745C64.1586 16.8087 63.9331 16.8381 63.7518 16.8625C63.3254 16.9164 62.9358 17.0069 62.5829 17.1341C62.2349 17.2613 61.9556 17.4448 61.7448 17.6845C61.539 17.9194 61.4361 18.2325 61.4361 18.6239C61.4361 19.167 61.637 19.578 62.0389 19.8569C62.4408 20.1309 62.9529 20.2679 63.5754 20.2679Z" fill="#141414"/>
<path d="M79.3003 21.7797V10.507H81.4984V21.7797H79.3003ZM80.4103 8.76761C80.0281 8.76761 79.6997 8.6404 79.4252 8.38598C79.1557 8.12667 79.0209 7.81843 79.0209 7.46127C79.0209 7.09921 79.1557 6.79097 79.4252 6.53655C79.6997 6.27724 80.0281 6.14758 80.4103 6.14758C80.7926 6.14758 81.1185 6.27724 81.3881 6.53655C81.6626 6.79097 81.7998 7.09921 81.7998 7.46127C81.7998 7.81843 81.6626 8.12667 81.3881 8.38598C81.1185 8.6404 80.7926 8.76761 80.4103 8.76761Z" fill="#141414"/>
<path d="M89.212 22.0072C88.1533 22.0072 87.2295 21.765 86.4404 21.2806C85.6514 20.7963 85.0387 20.1186 84.6025 19.2477C84.1664 18.3768 83.9483 17.3592 83.9483 16.1947C83.9483 15.0253 84.1664 14.0028 84.6025 13.127C85.0387 12.2512 85.6514 11.5711 86.4404 11.0867C87.2295 10.6024 88.1533 10.3602 89.212 10.3602C90.2706 10.3602 91.1944 10.6024 91.9835 11.0867C92.7725 11.5711 93.3852 12.2512 93.8214 13.127C94.2576 14.0028 94.4757 15.0253 94.4757 16.1947C94.4757 17.3592 94.2576 18.3768 93.8214 19.2477C93.3852 20.1186 92.7725 20.7963 91.9835 21.2806C91.1944 21.765 90.2706 22.0072 89.212 22.0072ZM89.2193 20.1651C89.9054 20.1651 90.474 19.9841 90.9249 19.622C91.3758 19.26 91.709 18.778 91.9247 18.1762C92.1452 17.5744 92.2555 16.9115 92.2555 16.1874C92.2555 15.4681 92.1452 14.8076 91.9247 14.2058C91.709 13.5991 91.3758 13.1123 90.9249 12.7454C90.474 12.3784 89.9054 12.1949 89.2193 12.1949C88.5283 12.1949 87.9548 12.3784 87.499 12.7454C87.0482 13.1123 86.7124 13.5991 86.4919 14.2058C86.2762 14.8076 86.1684 15.4681 86.1684 16.1874C86.1684 16.9115 86.2762 17.5744 86.4919 18.1762C86.7124 18.778 87.0482 19.26 87.499 19.622C87.9548 19.9841 88.5283 20.1651 89.2193 20.1651Z" fill="#141414"/>
<path d="M99.1273 15.0865V21.7797H96.9292V10.507H99.0391V12.3417H99.1788C99.4385 11.7448 99.8453 11.2653 100.399 10.9033C100.958 10.5412 101.661 10.3602 102.509 10.3602C103.278 10.3602 103.952 10.5216 104.531 10.8446C105.109 11.1626 105.557 11.6372 105.876 12.2683C106.195 12.8995 106.354 13.6799 106.354 14.6095V21.7797H104.156V14.8737C104.156 14.0566 103.943 13.4181 103.516 12.9582C103.09 12.4934 102.504 12.261 101.759 12.261C101.249 12.261 100.796 12.3711 100.399 12.5912C100.007 12.8114 99.6958 13.1343 99.4655 13.56C99.24 13.9808 99.1273 14.4896 99.1273 15.0865Z" fill="#141414"/>
<path fill-rule="evenodd" clip-rule="evenodd" d="M12.6367 21.2953C13.4404 21.7699 14.3986 22.0072 15.5111 22.0072C16.3345 22.0072 17.0672 21.8824 17.7092 21.6329C18.3561 21.3785 18.8928 21.0238 19.3192 20.5688C19.7505 20.1088 20.0494 19.5731 20.2161 18.9615L18.1356 18.5872C18.0033 18.9395 17.8121 19.2355 17.5622 19.4752C17.3122 19.715 17.0157 19.896 16.6726 20.0183C16.3296 20.1357 15.9497 20.1945 15.5332 20.1945C14.8911 20.1945 14.33 20.0575 13.8497 19.7835C13.3694 19.5046 12.9944 19.1009 12.7249 18.5725C12.4784 18.0805 12.3468 17.491 12.3298 16.8038H20.3558V16.0259C20.3558 15.0033 20.2185 14.1349 19.9441 13.4205C19.6696 12.7013 19.2947 12.1167 18.8193 11.6665C18.3439 11.2164 17.8072 10.8861 17.2093 10.6758C16.6114 10.4654 15.9939 10.3602 15.3567 10.3602C14.3079 10.3602 13.3914 10.6073 12.6072 11.1014C11.828 11.5956 11.2203 12.283 10.7841 13.1637C10.3528 14.0444 10.1371 15.062 10.1371 16.2167C10.1371 17.3861 10.3528 18.4062 10.7841 19.2771C11.2203 20.1431 11.8378 20.8158 12.6367 21.2953ZM12.3334 15.1599H18.2018C18.2018 14.5826 18.0841 14.0713 17.8489 13.626C17.6136 13.1759 17.2828 12.8212 16.8564 12.5619C16.4349 12.3026 15.9399 12.1729 15.3714 12.1729C14.7539 12.1729 14.2148 12.3246 13.7541 12.6279C13.2983 12.9264 12.9454 13.3178 12.6955 13.8022C12.4805 14.2228 12.3598 14.6753 12.3334 15.1599ZM12.3279 15.3654V16.6497C12.3279 16.7016 12.3285 16.753 12.3298 16.8038H11.3795V15.1599H12.3334C12.3297 15.2278 12.3279 15.2963 12.3279 15.3654Z" fill="#141414"/>
<path d="M11.3795 15.1599V16.8038H12.3298C12.3285 16.753 12.3279 16.7016 12.3279 16.6497V15.3654C12.3279 15.2963 12.3297 15.2278 12.3334 15.1599H11.3795Z" fill="#141414"/>
<path fill-rule="evenodd" clip-rule="evenodd" d="M76.8688 12.2683V10.507H74.553V7.8062H72.3549V10.507H70.7008V12.2683H72.3549V18.9248C72.3549 19.6049 72.5093 20.17 72.8181 20.6201C73.1268 21.0703 73.5312 21.403 74.0311 21.6182C74.531 21.8335 75.0701 21.9363 75.6484 21.9265C76.0013 21.9216 76.2953 21.8922 76.5306 21.8384C76.7658 21.7895 76.9472 21.7405 77.0746 21.6916L76.6776 19.8789C76.6041 19.8936 76.5012 19.9131 76.3688 19.9376C76.2365 19.9621 76.0821 19.9743 75.9057 19.9743C75.6656 19.9743 75.4426 19.9376 75.2367 19.8642C75.0358 19.7859 74.8716 19.6416 74.7442 19.4312C74.6167 19.2159 74.553 18.8955 74.553 18.4698V12.2683H76.8688ZM74.553 12.2683V10.507H72.3549V12.2683H74.553Z" fill="#141414"/>
<path d="M74.553 12.2683V10.507H72.3549V12.2683H74.553Z" fill="#141414"/>
</svg>
